<?xml version="1.0" encoding="UTF-8" standalone="no"?>
<svg
   width="994.828"
   height="720.99646"
   viewBox="0 0 994.828 720.99646"
   version="1.1"
   xml:space="preserve"
   style="clip-rule:evenodd;fill-rule:evenodd"
   id="svg46"
   sodipodi:docname="forestcraft_logo2_blackwhite.svg"
   inkscape:version="1.3.2 (091e20e, 2023-11-25, custom)"
   xmlns:inkscape="http://www.inkscape.org/namespaces/inkscape"
   xmlns:sodipodi="http://sodipodi.sourceforge.net/DTD/sodipodi-0.dtd"
   xmlns="http://www.w3.org/2000/svg"
   xmlns:svg="http://www.w3.org/2000/svg"
   xmlns:serif="http://www.serif.com/"><defs
   id="defs46" /><sodipodi:namedview
   id="namedview46"
   pagecolor="#747474"
   bordercolor="#000000"
   borderopacity="0.25"
   inkscape:showpageshadow="2"
   inkscape:pageopacity="0.0"
   inkscape:pagecheckerboard="true"
   inkscape:deskcolor="#d1d1d1"
   inkscape:zoom="1.147"
   inkscape:cx="568.87533"
   inkscape:cy="450.30514"
   inkscape:window-width="2560"
   inkscape:window-height="1361"
   inkscape:window-x="-9"
   inkscape:window-y="-9"
   inkscape:window-maximized="1"
   inkscape:current-layer="svg46" />
    <g
   id="frames"
   transform="translate(-2.586,402.554)">
        <g
   id="path4540"
   transform="translate(0,-600)"
   style="fill:#919191;fill-opacity:0">
            <path
   d="M 973.862,800.513 25.653,798.31 C 21.225,777.942 18.077,757.1 16.298,735.871 15.164,722.35 14.586,708.672 14.586,694.859 14.586,426.952 232.093,209.446 500,209.446 c 267.907,0 485.414,217.506 485.414,485.413 0,36.281 -3.989,71.637 -11.552,105.654 z"
   style="fill:#919191;stroke:#000000;stroke-width:24px;stroke-opacity:1;fill-opacity:0"
   id="path1" />
        </g>
        <path
   id="path4534"
   d="m 500,-204.099 c 165,0 298.958,133.959 298.958,298.958 0,37.577 -19.627,104.824 -19.627,104.824 L 219.892,197.63 c 0,0 -18.85,-65.969 -18.85,-102.771 C 201.042,-70.14 335,-204.099 500,-204.099 Z"
   style="fill:#919191;stroke:#000000;stroke-width:24px;stroke-linejoin:round;fill-opacity:0;stroke-opacity:1" />
    </g>
    <g
   id="attributions"
   transform="translate(-2.586,-197.446)">
    </g>
    
    <g
   id="Artboard11"
   serif:id="Artboard1"
   transform="translate(-2.586,-197.446)">
        <g
   id="illus-"
   serif:id="illus\">
            <g
   id="smoke"
   transform="translate(19.5835,19.3639)">
                <path
   d="m 558.995,555 h 15 c -0.032,-3.987 0.203,-4.908 0.203,-4.908 C 573.995,540 578.995,535 583.995,535 c 10,0 10,-5 10,-15 0,-10 -3.32,-15 -20,-15 h -35 c -10,0 -10,5 -20,5 l -67.505,3.273 c 0,0 70.001,6.288 87.314,6.086 15.203,-0.178 20.191,5.641 20.191,10.641 z"
   style="fill-rule:nonzero;stroke:#000000;stroke-width:1px;stroke-linejoin:round;stroke-miterlimit:2"
   id="path2" />
            </g>
            <g
   id="hill-center"
   serif:id="hill center"
   transform="translate(36.6559)">
                <path
   d="m 321.401,800.15 c 0,0 59.533,-83.691 178.599,-83.691 119.066,0 178.599,82.74 178.599,82.74"
   style="fill:none;fill-rule:nonzero;stroke:#000000;stroke-width:16.22px"
   id="path3" />
            </g>
            <g
   id="house"
   transform="translate(38.4937,17.4327)">
                <g
   transform="translate(0.186817,-4.83171)"
   id="g4">
                    <path
   d="m 429.367,636.869 4.032,10.888 c 0,0 -5.037,2.825 -4.839,12.501 0.156,7.636 4.839,11.694 4.839,11.694 0,0 -3.663,3.074 -3.629,9.678 0.043,8.508 4.436,12.098 4.436,12.098 0,0 -5.334,4.419 -4.839,16.533 0.181,4.442 0.937,6.608 0.937,6.608 l 140.201,0.247 c 0,0 1.4,-6.502 1.119,-12.072 -0.314,-6.225 -3.942,-12.123 -3.942,-12.123 0,0 2.793,-2.828 2.732,-10.575 -0.057,-7.286 -4.748,-10.797 -4.748,-10.797 0,0 4.032,-4.033 3.226,-10.888 -0.807,-6.855 -4.436,-10.484 -4.436,-10.484 l 3.629,-7.662"
   style="fill:#ffffff;stroke:#000000;stroke-width:8.5px;stroke-linecap:round;stroke-miterlimit:1.5"
   id="path4" />
                </g>
                <g
   transform="translate(0.993321,-5.23496)"
   id="g5">
                    <path
   d="m 453.159,641.708 h 38.308 l 1.21,47.584 -39.518,-0.403 z"
   style="fill:none;stroke:#000000;stroke-width:9px;stroke-linecap:round;stroke-miterlimit:1.5"
   id="path5" />
                </g>
                <g
   transform="translate(0.186817,-4.83171)"
   id="g6">
                    <path
   d="m 475.337,588.882 47.987,-0.403"
   style="fill:none;stroke:#000000;stroke-width:6.5px;stroke-linecap:round;stroke-miterlimit:1.5"
   id="path6" />
                </g>
                <g
   transform="translate(0.186817,-4.83171)"
   id="g7">
                    <path
   d="m 455.175,663.484 35.083,0.403"
   style="fill:none;stroke:#000000;stroke-width:9px;stroke-linecap:round;stroke-miterlimit:1.5"
   id="path7" />
                </g>
                <g
   transform="translate(0.186817,-4.83171)"
   id="g8">
                    <path
   d="m 473.724,641.708 0.404,45.971"
   style="fill:none;stroke:#000000;stroke-width:9px;stroke-linecap:round;stroke-miterlimit:1.5"
   id="path8" />
                </g>
                <g
   transform="translate(0.186817,-4.83171)"
   id="g9">
                    <path
   d="m 457.998,606.222 h 78.634"
   style="fill:none;stroke:#000000;stroke-width:6.5px;stroke-linecap:round;stroke-miterlimit:1.5"
   id="path9" />
                </g>
                <g
   transform="translate(0.186817,-4.83171)"
   id="g10">
                    <path
   d="m 439.851,626.385 115.734,-0.807"
   style="fill:none;stroke:#000000;stroke-width:6.5px;stroke-linecap:round;stroke-miterlimit:1.5"
   id="path10" />
                </g>
                <g
   transform="translate(0.186817,-4.83171)"
   id="g11">
                    <path
   d="m 430.173,649.773 21.776,-0.403"
   style="fill:none;stroke:#000000;stroke-width:6.5px;stroke-linecap:round;stroke-miterlimit:1.5"
   id="path11" />
                </g>
                <g
   transform="translate(0.186817,-4.83171)"
   id="g12">
                    <path
   d="m 494.29,648.967 70.973,-0.403"
   style="fill:none;stroke:#000000;stroke-width:6.5px;stroke-linecap:round;stroke-miterlimit:1.5"
   id="path12" />
                </g>
                <g
   transform="translate(0.186817,-4.83171)"
   id="g13">
                    <path
   d="m 566.876,671.952 -72.183,1.21"
   style="fill:none;stroke:#000000;stroke-width:6.5px;stroke-linecap:round;stroke-miterlimit:1.5"
   id="path13" />
                </g>
                <g
   transform="translate(0.186817,-4.83171)"
   id="g14">
                    <path
   d="m 430.98,671.952 22.985,0.403"
   style="fill:none;stroke:#000000;stroke-width:6.5px;stroke-linecap:round;stroke-miterlimit:1.5"
   id="path14" />
                </g>
                <g
   transform="translate(0.186817,-4.83171)"
   id="g15">
                    <path
   d="m 432.996,693.728 134.686,-1.21"
   style="fill:none;stroke:#000000;stroke-width:6.5px;stroke-linecap:round;stroke-miterlimit:1.5"
   id="path15" />
                </g>
                <g
   transform="translate(0.186817,-4.83171)"
   id="g17">
                    <path
   d="m 513.127,644.309 27.134,-0.181 2.888,68.502 -29.256,-0.156 z"
   id="path16" />
                    <path
   d="m 544.334,639.85 -35.505,0.238 0.862,76.613 37.892,0.203 z m -26.909,8.681 18.763,-0.126 c 0,0 2.527,59.951 2.527,59.951 0,0 -20.619,-0.11 -20.619,-0.11 z"
   id="path17" />
                </g>
                <g
   transform="matrix(0.759259,0,0,0.759259,291.61,188.986)"
   id="g18">
                    <circle
   cx="321.49701"
   cy="645.539"
   r="5.4439998"
   style="fill:#ffffff;stroke:#000000;stroke-width:11.2px;stroke-linecap:round;stroke-linejoin:bevel;stroke-miterlimit:1.4"
   id="circle17" />
                </g>
                <g
   id="roof"
   transform="translate(0.186817,-4.83171)">
                    <path
   d="m 499.129,548.557 -17.34,11.694 -0.806,8.469 -20.163,14.113 -0.403,6.452 -17.34,12.098 v 8.468 l -16.936,10.082 -0.807,7.258 -20.566,16.937 12.501,7.258 7.259,-2.016 76.16,-78.058 67.801,76.848 c 0,0 6.452,2.42 8.871,2.42 4.436,0 9.275,-6.452 9.275,-6.452 l -17.743,-17.34 2.016,-6.452 -11.694,-7.662 -1.21,-45.567 h -23.792 v 11.291 l -4.436,0.403 -7.258,-5.242 0.403,-6.856 z"
   style="stroke:#000000;stroke-width:1px;stroke-linecap:round;stroke-linejoin:round;stroke-miterlimit:1.5"
   id="path18" />
                </g>
            </g>
            <g
   id="tree-small"
   serif:id="tree small"
   transform="translate(-9.88923,3.79804)">
                <path
   d="m 312.191,568.898 c 0,0 -1.741,14.283 -11.496,19.508 -9.754,5.226 -17.707,8.938 -17.707,8.938 0,0 14.921,2.907 13.527,4.997 -1.393,2.09 -13.179,6.775 -13.179,6.775 0,0 9.347,0.889 9.347,4.721 0,3.832 -23.281,9.37 -23.281,9.37 l 17.707,3.519 c 0,0 -0.769,3.448 -6.691,5.886 -5.922,2.439 -9.021,5.683 -9.021,5.683 l 15.099,2.895 c 0,0 -0.649,3.783 -5.526,5.524 -4.877,1.742 -15.045,5.264 -15.045,5.264 0,0 5.695,3.813 8.737,4.394 2.71,0.517 9.516,-0.91 9.516,-0.91 0,0 -0.139,3.025 -4.71,5.716 -2.416,1.423 -4.9,4.914 -4.9,4.914 h 12.193 l -8.519,10.188 c 0,0 11.041,-2.823 13.984,-2.366 2.072,0.321 3.676,5.105 3.676,5.105 l 7.976,-3.171 -0.047,74.199 h 13.934 l -0.828,-79.354 c 0,0 3.651,-1.862 7.832,0.228 4.18,2.09 6.919,4.841 11.1,4.493 4.18,-0.349 8.829,-3.136 8.829,-3.136 l -4.744,-4.096 3.314,-5.273 -10.559,-6.692 c 0,0 0.059,-3.28 8.012,-5.105 5.475,-1.257 9.019,-7.826 9.019,-7.826 0,0 -4.251,1.097 -9.679,0.162 -6.764,-1.165 -10.8,-3.832 -10.8,-3.832 0,0 7.479,-0.612 9.033,-1.776 2.101,-1.574 4.668,-5.431 4.668,-5.431 0,0 -5.95,-0.707 -9.653,-1.43 -5.09,-0.994 -9.837,-6.114 -9.837,-6.114 0,0 2.043,-0.12 9.359,-2.559 7.315,-2.438 10.016,-5.682 10.016,-5.682 l -17.069,-3.135 4.325,-6.775 -4.179,-2.919 c 0,0 2.571,-1.698 7.171,-3.087 1.982,-0.599 4.527,-6.031 4.527,-6.031 0,0 -8.709,1.393 -16.721,-8.709 -8.013,-10.103 -8.71,-17.07 -8.71,-17.07 z"
   style="stroke:#000000;stroke-width:1px;stroke-linecap:round;stroke-miterlimit:1.4"
   id="path19" />
            </g>
            <g
   transform="matrix(-0.914261,0,0,1.12144,973.665,-94.1838)"
   id="g20">
                <path
   d="m 312.191,568.898 c -3.367,0.406 -1.741,14.283 -11.496,19.508 -9.754,5.226 -17.027,8.383 -17.027,8.383 l 12.847,5.552 -13.179,6.775 9.347,4.721 -23.281,9.37 17.707,3.519 c 0,0 -0.769,3.448 -6.691,5.886 -5.922,2.439 -9.021,5.683 -9.021,5.683 l 15.099,2.895 c 0,0 -0.649,3.783 -5.526,5.524 -4.877,1.742 -13.489,8.375 -13.489,8.375 l 16.697,0.373 c 0,0 -0.139,3.025 -4.71,5.716 -2.416,1.423 -4.9,4.914 -4.9,4.914 h 12.193 l -8.519,10.188 c 0,0 11.041,-2.823 13.984,-2.366 2.072,0.321 3.676,5.105 3.676,5.105 l 7.976,-3.171 -0.047,74.199 h 13.934 l -0.828,-79.354 c 0,0 3.651,-1.862 7.832,0.228 4.18,2.09 6.919,4.841 11.1,4.493 4.18,-0.349 8.829,-3.136 8.829,-3.136 0,0 -4.506,-2.535 -4.744,-4.096 -0.238,-1.562 3.314,-5.273 3.314,-5.273 l -10.559,-6.692 c 0,0 0.059,-3.28 8.012,-5.105 5.475,-1.257 9.078,-4.051 9.078,-4.051 0,0 -6.352,-1.291 -11.78,-2.226 -6.764,-1.165 -8.758,-5.219 -8.758,-5.219 0,0 6.688,0.613 10.773,0.181 4.941,-0.522 9.878,-4.059 9.878,-4.059 0,0 -7.481,-2.206 -10.644,-3.007 -3.585,-0.908 -8.098,-4.158 -8.098,-4.158 0,0 4.878,-0.423 9.66,-1.758 4.349,-1.213 9.619,-4.873 9.619,-4.873 l -20.123,-8.168 9.214,-3.153 -7.568,-2.621 -6.048,-4.205 c 0,0 3.252,-1.421 7.852,-2.81 1.982,-0.598 5.547,-3.534 5.547,-3.534 0,0 -10.41,-1.381 -18.422,-11.483 -8.013,-10.103 -5.342,-17.476 -8.71,-17.07 z"
   style="stroke:#000000;stroke-width:0.98px;stroke-linecap:round;stroke-miterlimit:1.4"
   id="path20" />
            </g>
            <g
   transform="translate(-2.69706,-28.7687)"
   id="g21">
                <path
   d="m 413.514,496.521 c 0,0 -1.539,7.18 -10.001,12.308 -8.462,5.129 -16.411,10.77 -16.411,10.77 l 12.052,3.077 c 0,0 3.334,1.795 -2.82,5.642 -6.155,3.846 -8.719,3.333 -8.719,3.333 l 3.334,5.129 c 0,0 -0.15,3.968 -6.989,6.389 -9.096,3.219 -12.76,4.806 -12.76,4.806 0,0 4.93,4.118 9.405,5.279 4.821,1.251 11.543,1.238 11.543,1.238 0,-1.666 -3.547,5.108 -7.714,6.712 -4.541,1.747 -12.609,3.804 -12.609,3.804 0,0 2.2,3.055 6.302,3.825 4.103,0.769 7.18,1.282 7.18,1.282 0,0 -3.81,4.98 -9.682,7.01 -7.953,2.75 -15.686,3.632 -15.686,3.632 0,0 4.914,7.608 12.588,8.399 5.617,0.578 10.559,0.061 10.559,0.061 0,0 -3.611,4.531 -7.97,6.583 -4.359,2.051 -13.438,2.543 -13.438,2.543 0,0 4.381,6.352 11.707,7.584 3.392,0.571 9.358,1.369 9.358,1.369 0,0 -3.861,4.447 -11.499,7.117 -6.88,2.404 -18.163,5.298 -18.163,5.298 0,0 5.077,4.707 10.174,5.535 5.674,0.922 13.59,-1.538 13.59,-1.538 0,0 -3.292,4.939 -6.154,6.667 -4.992,3.013 -8.206,3.59 -8.206,3.59 0,0 1.539,2.82 5.385,3.846 3.847,1.026 7.437,0.513 7.437,0.513 l -7.18,8.718 c 0,0 5.385,2.308 12.052,0.513 6.667,-1.795 5.982,-3.759 12.649,-4.015 6.667,-0.256 7.255,6.914 7.255,6.914 l -2.467,133.426 19.841,-4.878 -4.296,-125.13 c 0,0 1.593,-4.808 4.926,-5.065 3.334,-0.256 3.011,-0.698 7.479,1.312 5.128,2.308 11.539,0.257 11.539,0.257 l -3.333,-7.437 c 0,0 4.615,1.026 9.487,-0.512 4.157,-1.313 8.206,-6.411 8.206,-6.411 0,0 -4.616,-1.539 -8.719,-3.846 -4.102,-2.308 -5.128,-7.693 -5.128,-7.693 0,0 3.59,0.256 8.462,-1.282 4.872,-1.539 8.718,-5.129 8.718,-5.129 0,0 -3.846,-1.025 -8.974,-3.59 -5.129,-2.564 -7.18,-7.436 -7.18,-7.436 0,0 6.41,1.282 11.795,0.769 5.385,-0.513 8.206,-4.103 8.206,-4.103 l -26.668,-14.359 c 0,0 9.231,2.564 13.847,1.282 4.615,-1.282 8.718,-6.924 8.718,-6.924 l -17.95,-6.154 5.129,-11.283 c 0,0 -1.026,1.283 -5.385,-1.282 -4.359,-2.564 -3.077,-5.897 -3.077,-5.897 0,0 5.898,0.256 9.744,-0.513 3.846,-0.77 6.154,-3.847 6.154,-3.847 0,0 -7.693,-1.538 -12.565,-5.128 -4.872,-3.59 -10.77,-11.026 -10.77,-11.026 0,0 5.642,0.769 7.95,-0.77 2.307,-1.538 2.307,-3.59 2.307,-3.59 0,0 -2.564,0.513 -8.205,-3.333 -5.642,-3.847 -5.385,-7.437 -5.385,-7.437 h 12.308 c 0,0 -4.359,-2.564 -12.052,-10 -7.692,-7.436 -9.231,-16.924 -9.231,-16.924 z"
   style="stroke:#000000;stroke-width:1px;stroke-linecap:round;stroke-miterlimit:1.4"
   id="path21" />
            </g>
            <g
   id="hill-sides"
   serif:id="hill sides"
   transform="translate(-730.59,399.049)">
                <clipPath
   id="_clip1">
                    <path
   d="m 1101.77,401.349 c 0,0 38.92,-78.597 160.41,-81.09 121.49,-2.493 148.18,77.749 148.18,77.749 l 103.44,0.801 c 0,0 17.96,-50 17.96,-100 0,-50 -33.24,-300 -300,-300 -266.76,0 -300,262.395 -300,300 0,37.605 17.805,100 17.805,100"
   id="path22" />
                </clipPath>
                <g
   clip-path="url(#_clip1)"
   id="g23">
                    <path
   d="m 921.401,310.591 c 0,0 50,-0.816 100.219,16.097 50.98,17.17 203.21,50.295 253.21,50.295 50,0 91.31,-25.304 147.39,-47.628 49.18,-19.58 99.18,-18.764 99.18,-18.764"
   style="fill:none;fill-rule:nonzero;stroke:#000000;stroke-width:15px"
   id="path23" />
                </g>
            </g>
        </g>
        <g
   id="TEXT">
            <g
   transform="translate(-23,577)"
   id="g35">
                <g
   id="path45341"
   serif:id="path4534">
                    <g
   transform="matrix(0.0586012,-0.998281,1.03821,0.0609452,28.9308,326.176)"
   id="g24">
                        <path
   d="m 259.92,113.071 h -11.34 l -2.38,-13.16 h -19.18 v 33.46 l 16.38,2.66 v 8.82 h -47.74 v -8.12 l 13.16,-3.36 v -78.26 l -13.16,-2.94 v -8.12 h 83.02 v 29.96 h -11.76 l -4.48,-19.74 h -35.42 v 35.14 h 19.18 l 2.38,-13.3 h 11.34 z"
   style="fill-rule:nonzero;stroke:none;stroke-width:0.98058219;stroke-linejoin:round;stroke-miterlimit:2;stroke-opacity:1;stroke-dasharray:none"
   id="path24" />
                    </g>
                    <g
   transform="matrix(0.320058,-0.947398,0.985294,0.33286,68.366,224.837)"
   id="g25">
                        <path
   d="m 294.932,11.999 c 0,7.747 -1.12,15.214 -3.36,22.4 -2.24,7.187 -5.787,13.3 -10.64,18.34 -4.014,4.107 -8.82,7.164 -14.42,9.17 -5.6,2.007 -12.32,3.01 -20.16,3.01 -7.84,0 -14.56,-0.98 -20.16,-2.94 -5.6,-1.96 -10.314,-4.9 -14.14,-8.82 -4.014,-4.2 -7.257,-9.683 -9.73,-16.45 -2.474,-6.766 -3.71,-14.256 -3.71,-22.47 0,-8.12 1.236,-15.75 3.71,-22.89 2.473,-7.14 5.903,-13.09 10.29,-17.85 3.92,-4.2 8.633,-7.28 14.14,-9.24 5.506,-1.96 12.18,-2.94 20.02,-2.94 7.466,0 14.046,0.934 19.74,2.8 5.693,1.867 10.64,4.854 14.84,8.96 4.853,4.854 8.33,10.71 10.43,17.57 2.1,6.86 3.15,13.977 3.15,21.35 z m -76.02,-0.42 c 0,7.28 0.676,13.72 2.03,19.32 1.353,5.6 3.196,10.174 5.53,13.72 2.24,3.454 5.04,6.067 8.4,7.84 3.36,1.774 7.466,2.66 12.32,2.66 8.773,0 15.4,-3.08 19.88,-9.24 2.426,-3.266 4.293,-7.56 5.6,-12.88 1.306,-5.32 1.96,-11.666 1.96,-19.04 0,-7.373 -0.677,-13.79 -2.03,-19.25 -1.354,-5.46 -3.244,-9.916 -5.67,-13.37 -2.427,-3.546 -5.39,-6.16 -8.89,-7.84 -3.5,-1.68 -7.444,-2.52 -11.83,-2.52 -4.387,0 -8.19,0.817 -11.41,2.45 -3.22,1.634 -5.904,3.897 -8.05,6.79 -5.227,6.907 -7.84,17.36 -7.84,31.36 z"
   style="fill-rule:nonzero;stroke:none;stroke-width:0.98058064;stroke-linejoin:round;stroke-miterlimit:2;stroke-opacity:1;stroke-dasharray:none"
   id="path25" />
                    </g>
                    <g
   transform="matrix(0.582094,-0.813122,0.845646,0.605378,119.477,169.343)"
   id="g26">
                        <path
   d="m 302.52,-84.423 c -1.68,1.307 -3.57,2.567 -5.67,3.78 -2.1,1.213 -4.783,2.193 -8.05,2.94 0.467,0.467 1.213,1.283 2.24,2.45 1.027,1.167 2.007,2.543 2.94,4.13 l 17.36,29.4 12.46,2.66 v 8.12 h -33.04 v -8.12 l -18.34,-35.98 h -13.44 v 33.04 l 13.3,2.94 v 8.12 h -43.26 v -8.12 l 11.76,-2.94 v -78.68 l -11.76,-2.94 v -8.12 h 52.36 c 4.48,0 8.423,0.42 11.83,1.26 3.407,0.84 6.417,2.193 9.03,4.06 3.36,2.333 6.02,5.437 7.98,9.31 1.96,3.873 2.94,7.77 2.94,11.69 0,3.92 -0.957,7.77 -2.87,11.55 -1.913,3.78 -4.503,6.93 -7.77,9.45 z m -43.54,-0.84 h 15.82 c 5.133,0 9.38,-1.447 12.74,-4.34 1.867,-1.587 3.337,-3.71 4.41,-6.37 1.073,-2.66 1.61,-5.53 1.61,-8.61 0,-2.8 -0.56,-5.343 -1.68,-7.63 -1.12,-2.287 -2.613,-4.177 -4.48,-5.67 -1.587,-1.307 -3.43,-2.24 -5.53,-2.8 -2.1,-0.56 -4.643,-0.84 -7.63,-0.84 h -15.26 z"
   style="fill-rule:nonzero;stroke:none;stroke-width:0.98058055;stroke-linejoin:round;stroke-miterlimit:2;stroke-opacity:1;stroke-dasharray:none"
   id="path26" />
                    </g>
                    <g
   transform="matrix(0.795342,-0.606161,0.630408,0.827156,131.333,152.582)"
   id="g27">
                        <path
   d="m 354.062,-149.204 h -11.34 l -2.38,-13.16 h -19.18 v 35.98 h 38.5 l 3.92,-20.72 h 12.32 v 31.22 h -86.1 v -8.12 l 13.16,-2.94 v -78.68 l -13.16,-2.94 v -8.12 h 83.02 v 29.68 h -11.48 l -4.06,-19.46 h -36.12 v 33.6 h 19.18 l 2.38,-13.3 h 11.34 z"
   style="fill-rule:nonzero;stroke:none;stroke-width:0.98058037;stroke-linejoin:round;stroke-miterlimit:2;stroke-opacity:1;stroke-dasharray:none"
   id="path27" />
                    </g>
                    <g
   transform="matrix(0.937879,-0.346962,0.360841,0.975394,86.6506,123.126)"
   id="g28">
                        <path
   d="m 412.491,-175.343 c -5.32,0 -9.823,-0.77 -13.51,-2.31 -3.686,-1.54 -6.976,-3.99 -9.87,-7.35 l -1.54,8.12 h -12.04 v -33.88 h 12.74 c 0.56,9.333 2.847,15.936 6.86,19.81 4.014,3.873 9.334,5.81 15.96,5.81 5.32,0 9.567,-1.12 12.74,-3.36 3.174,-2.24 4.76,-5.694 4.76,-10.36 0,-3.827 -1.05,-6.977 -3.15,-9.45 -2.1,-2.474 -5.04,-4.667 -8.82,-6.58 -3.78,-1.914 -8.19,-3.897 -13.23,-5.95 -5.786,-2.427 -10.733,-4.9 -14.84,-7.42 -4.106,-2.52 -7.233,-5.554 -9.38,-9.1 -2.146,-3.547 -3.22,-8.027 -3.22,-13.44 0,-9.054 2.777,-16.054 8.33,-21 5.554,-4.947 12.997,-7.42 22.33,-7.42 9.24,0 16.754,2.613 22.54,7.84 l 1.12,-6.3 h 12.04 v 33.88 h -12.18 c 0,-8.774 -1.633,-15.26 -4.9,-19.46 -3.266,-4.2 -8.306,-6.3 -15.12,-6.3 -10.546,0 -15.82,4.993 -15.82,14.98 0,3.266 0.654,5.88 1.96,7.84 1.307,1.96 3.477,3.78 6.51,5.46 3.034,1.68 7.164,3.686 12.39,6.02 7.84,3.546 14.094,6.86 18.76,9.94 4.667,3.08 8.004,6.323 10.01,9.73 2.007,3.406 3.01,7.396 3.01,11.97 0,6.253 -1.54,11.48 -4.62,15.68 -3.08,4.2 -7.21,7.35 -12.39,9.45 -5.18,2.1 -10.99,3.15 -17.43,3.15 z"
   style="fill-rule:nonzero;stroke:none;stroke-width:0.98058083;stroke-linejoin:round;stroke-miterlimit:2;stroke-opacity:1;stroke-dasharray:none"
   id="path28" />
                    </g>
                    <g
   transform="matrix(0.995261,-0.0972346,0.101124,1.03507,22.9674,50.3695)"
   id="g29">
                        <path
   d="m 446.956,-307.134 h 87.64 v 31.5 h -8.96 l -4.48,-21 h -21.28 v 78.82 l 14.84,3.36 v 8.12 h -47.88 v -8.12 l 14.84,-3.36 v -78.82 h -21.42 l -4.34,21 h -8.96 z"
   style="fill-rule:nonzero;stroke:none;stroke-width:0.98058183;stroke-linejoin:round;stroke-miterlimit:2;stroke-opacity:1;stroke-dasharray:none"
   id="path29" />
                    </g>
                    <g
   transform="matrix(0.948138,0.31786,-0.330575,0.986063,-39.7209,-187.545)"
   id="g30">
                        <path
   d="m 633.541,-303.81 c -3.547,0 -6.93,0.746 -10.15,2.24 -3.22,1.493 -5.81,3.64 -7.77,6.44 -2.52,3.64 -4.643,8.19 -6.37,13.65 -1.727,5.46 -2.59,11.503 -2.59,18.13 0,6.626 0.7,12.833 2.1,18.62 1.4,5.786 3.36,10.64 5.88,14.56 2.053,3.173 4.83,5.506 8.33,7 3.5,1.493 7.443,2.24 11.83,2.24 15.68,0 24.873,-7.887 27.58,-23.66 h 11.9 c -4.573,23.146 -18.76,34.72 -42.56,34.72 -12.88,0 -23.147,-3.734 -30.8,-11.2 -4.573,-4.48 -8.073,-10.127 -10.5,-16.94 -2.427,-6.814 -3.64,-14.374 -3.64,-22.68 0,-9.427 1.54,-17.967 4.62,-25.62 3.08,-7.654 7.42,-13.767 13.02,-18.34 7.093,-5.88 16.473,-8.82 28.14,-8.82 5.787,0 10.5,0.746 14.14,2.24 3.64,1.493 7.233,4.153 10.78,7.98 l 2.8,-8.82 h 11.9 v 33.04 h -12.74 c -1.307,-8.214 -4.223,-14.397 -8.75,-18.55 -4.527,-4.154 -10.243,-6.23 -17.15,-6.23 z"
   style="fill-rule:nonzero;stroke:none;stroke-width:0.9805805;stroke-linejoin:round;stroke-miterlimit:2;stroke-opacity:1;stroke-dasharray:none"
   id="path30" />
                    </g>
                    <g
   transform="matrix(0.815729,0.578434,-0.601571,0.848358,13.7392,-415.491)"
   id="g31">
                        <path
   d="m 749.69,-236.011 c -1.68,1.307 -3.57,2.567 -5.67,3.78 -2.1,1.214 -4.783,2.194 -8.05,2.94 0.467,0.467 1.214,1.284 2.24,2.45 1.027,1.167 2.007,2.544 2.94,4.13 l 17.36,29.4 12.46,2.66 v 8.12 h -33.04 v -8.12 l -18.34,-35.98 h -13.44 v 33.04 l 13.3,2.94 v 8.12 h -43.26 v -8.12 l 11.76,-2.94 v -78.68 l -11.76,-2.94 v -8.12 h 52.36 c 4.48,0 8.424,0.42 11.83,1.26 3.407,0.84 6.417,2.194 9.03,4.06 3.36,2.334 6.02,5.437 7.98,9.31 1.96,3.874 2.94,7.77 2.94,11.69 0,3.92 -0.956,7.77 -2.87,11.55 -1.913,3.78 -4.503,6.93 -7.77,9.45 z m -43.54,-0.84 h 15.82 c 5.134,0 9.38,-1.446 12.74,-4.34 1.867,-1.586 3.337,-3.71 4.41,-6.37 1.074,-2.66 1.61,-5.53 1.61,-8.61 0,-2.8 -0.56,-5.343 -1.68,-7.63 -1.12,-2.286 -2.613,-4.176 -4.48,-5.67 -1.586,-1.306 -3.43,-2.24 -5.53,-2.8 -2.1,-0.56 -4.643,-0.84 -7.63,-0.84 h -15.26 z"
   style="fill-rule:nonzero;stroke:none;stroke-width:0.98058099;stroke-linejoin:round;stroke-miterlimit:2;stroke-opacity:1;stroke-dasharray:none"
   id="path31" />
                    </g>
                    <g
   transform="matrix(0.582094,0.813122,-0.845646,0.605378,220.954,-665.347)"
   id="g32">
                        <path
   d="m 834.352,-126.47 -7.14,-21.7 h -34.16 l -7.28,21.7 11.62,2.94 v 8.12 h -36.96 v -8.12 l 11.48,-2.94 32.76,-91.14 h 17.22 l 32.48,91.14 11.2,2.94 v 8.12 h -42.7 v -8.12 z m -24.08,-72.66 -13.72,40.74 h 27.3 l -13.02,-40.74 z"
   style="fill-rule:nonzero;stroke:none;stroke-width:0.98058055;stroke-linejoin:round;stroke-miterlimit:2;stroke-opacity:1;stroke-dasharray:none"
   id="path32" />
                    </g>
                    <g
   transform="matrix(0.311255,0.950327,-0.98834,0.323705,537.535,-801.452)"
   id="g33">
                        <path
   d="m 891.935,-61.076 h -11.34 l -2.38,-13.16 h -19.18 v 33.46 l 16.38,2.66 v 8.82 h -47.74 v -8.12 l 13.16,-3.36 v -78.26 l -13.16,-2.94 v -8.12 h 83.02 v 29.96 h -11.76 l -4.48,-19.74 h -35.42 v 35.14 h 19.18 l 2.38,-13.3 h 11.34 z"
   style="fill-rule:nonzero;stroke:none;stroke-width:0.98058021;stroke-linejoin:round;stroke-miterlimit:2;stroke-opacity:1;stroke-dasharray:none"
   id="path33" />
                    </g>
                    <g
   transform="matrix(0.0657109,0.997839,-1.03775,0.0683394,844.352,-802.238)"
   id="g34">
                        <path
   d="m 852.897,-52.003 h 87.64 v 31.5 h -8.96 l -4.48,-21 h -21.28 v 78.82 l 14.84,3.36 v 8.12 h -47.88 v -8.12 l 14.84,-3.36 v -78.82 h -21.42 l -4.34,21 h -8.96 z"
   style="fill-rule:nonzero;stroke:none;stroke-width:0.98058159;stroke-linejoin:round;stroke-miterlimit:2;stroke-opacity:1;stroke-dasharray:none"
   id="path34" />
                    </g>
                </g>
            </g>
            <g
   transform="translate(46.7908,917.156)"
   id="g46">
                <g
   transform="scale(116.953)"
   id="g36">
                    <path
   d="m 0.26,-0.641 v 0.566 H 0.502 L 0.536,-0.248 H 0.621 V 0 H 0.036 V -0.058 L 0.13,-0.079 V -0.641 L 0.036,-0.662 V -0.72 h 0.328 v 0.058 z"
   style="fill-rule:nonzero;stroke:none;stroke-opacity:1;stroke-width:0.00855044;stroke-dasharray:none"
   id="path35" />
                </g>
                <g
   transform="matrix(116.953,0,0,116.953,75.4346,0)"
   id="g37">
                    <path
   d="m 0.731,-0.368 c 0,0.055 -0.008,0.109 -0.024,0.16 C 0.691,-0.157 0.666,-0.113 0.631,-0.077 0.602,-0.048 0.568,-0.026 0.528,-0.012 0.488,0.003 0.44,0.01 0.384,0.01 0.328,0.01 0.28,0.003 0.24,-0.011 0.2,-0.025 0.166,-0.046 0.139,-0.074 0.11,-0.104 0.087,-0.143 0.07,-0.192 0.052,-0.24 0.043,-0.293 0.043,-0.352 c 0,-0.058 0.009,-0.113 0.027,-0.164 0.017,-0.051 0.042,-0.093 0.073,-0.127 0.028,-0.03 0.062,-0.052 0.101,-0.066 0.039,-0.014 0.087,-0.021 0.143,-0.021 0.053,0 0.1,0.007 0.141,0.02 0.041,0.013 0.076,0.035 0.106,0.064 0.035,0.035 0.06,0.076 0.075,0.125 0.015,0.05 0.022,0.1 0.022,0.153 z M 0.188,-0.371 c 0,0.052 0.005,0.098 0.015,0.138 0.009,0.04 0.022,0.073 0.039,0.098 0.016,0.025 0.036,0.043 0.06,0.056 0.024,0.013 0.053,0.019 0.088,0.019 0.063,0 0.11,-0.022 0.142,-0.066 0.017,-0.023 0.031,-0.054 0.04,-0.092 0.009,-0.038 0.014,-0.083 0.014,-0.136 0,-0.053 -0.005,-0.099 -0.014,-0.138 C 0.562,-0.531 0.548,-0.562 0.531,-0.587 0.514,-0.612 0.493,-0.631 0.468,-0.643 0.443,-0.655 0.414,-0.661 0.383,-0.661 c -0.031,0 -0.058,0.006 -0.081,0.017 -0.023,0.012 -0.043,0.028 -0.058,0.049 -0.037,0.049 -0.056,0.124 -0.056,0.224 z"
   style="fill-rule:nonzero;stroke:none;stroke-opacity:1;stroke-width:0.00855044;stroke-dasharray:none"
   id="path36" />
                </g>
                <g
   transform="matrix(116.953,0,0,116.953,165.956,0)"
   id="g38">
                    <path
   d="m 0.378,-0.07 c 0.057,0 0.097,-0.014 0.121,-0.043 0.024,-0.028 0.036,-0.07 0.036,-0.125 v -0.04 L 0.451,-0.299 v -0.06 h 0.298 v 0.06 L 0.665,-0.278 V 0 H 0.583 L 0.558,-0.079 C 0.529,-0.047 0.5,-0.024 0.469,-0.011 0.438,0.003 0.401,0.01 0.359,0.01 0.268,0.01 0.195,-0.018 0.14,-0.074 0.109,-0.105 0.086,-0.145 0.069,-0.193 0.051,-0.241 0.043,-0.294 0.043,-0.352 c 0,-0.059 0.009,-0.115 0.027,-0.166 0.017,-0.051 0.042,-0.093 0.074,-0.126 0.027,-0.029 0.06,-0.05 0.097,-0.065 0.037,-0.014 0.081,-0.021 0.132,-0.021 0.04,0 0.073,0.005 0.099,0.016 0.026,0.011 0.051,0.029 0.076,0.056 l 0.02,-0.062 h 0.085 v 0.236 H 0.562 C 0.553,-0.537 0.534,-0.58 0.503,-0.613 0.472,-0.645 0.43,-0.661 0.377,-0.661 c -0.03,0 -0.055,0.005 -0.075,0.015 -0.02,0.01 -0.037,0.024 -0.052,0.043 -0.019,0.028 -0.034,0.062 -0.047,0.103 -0.013,0.041 -0.019,0.086 -0.019,0.134 0,0.047 0.006,0.092 0.018,0.135 0.011,0.043 0.028,0.08 0.049,0.109 0.013,0.018 0.031,0.031 0.054,0.039 0.022,0.009 0.046,0.013 0.073,0.013 z"
   style="fill-rule:nonzero;stroke:none;stroke-opacity:1;stroke-width:0.00855044;stroke-dasharray:none"
   id="path37" />
                </g>
                <g
   transform="matrix(116.953,0,0,116.953,254.84,0)"
   id="g39">
                    <path
   d="M 0.737,-0.127 0.878,-0.642 0.799,-0.662 V -0.72 h 0.259 v 0.058 L 0.975,-0.641 0.79,0 H 0.656 L 0.525,-0.431 0.406,0 H 0.272 L 0.067,-0.641 -0.011,-0.662 V -0.72 h 0.314 v 0.058 l -0.096,0.021 0.142,0.513 H 0.353 L 0.479,-0.596 0.47,-0.641 0.392,-0.662 V -0.72 h 0.294 v 0.058 l -0.092,0.021 0.139,0.514 z"
   style="fill-rule:nonzero;stroke:none;stroke-opacity:1;stroke-width:0.00855044;stroke-dasharray:none"
   id="path38" />
                </g>
                <g
   transform="matrix(116.953,0,0,116.953,375.887,0)"
   id="g40">
                    <path
   d="m 0.731,-0.368 c 0,0.055 -0.008,0.109 -0.024,0.16 C 0.691,-0.157 0.666,-0.113 0.631,-0.077 0.602,-0.048 0.568,-0.026 0.528,-0.012 0.488,0.003 0.44,0.01 0.384,0.01 0.328,0.01 0.28,0.003 0.24,-0.011 0.2,-0.025 0.166,-0.046 0.139,-0.074 0.11,-0.104 0.087,-0.143 0.07,-0.192 0.052,-0.24 0.043,-0.293 0.043,-0.352 c 0,-0.058 0.009,-0.113 0.027,-0.164 0.017,-0.051 0.042,-0.093 0.073,-0.127 0.028,-0.03 0.062,-0.052 0.101,-0.066 0.039,-0.014 0.087,-0.021 0.143,-0.021 0.053,0 0.1,0.007 0.141,0.02 0.041,0.013 0.076,0.035 0.106,0.064 0.035,0.035 0.06,0.076 0.075,0.125 0.015,0.05 0.022,0.1 0.022,0.153 z M 0.188,-0.371 c 0,0.052 0.005,0.098 0.015,0.138 0.009,0.04 0.022,0.073 0.039,0.098 0.016,0.025 0.036,0.043 0.06,0.056 0.024,0.013 0.053,0.019 0.088,0.019 0.063,0 0.11,-0.022 0.142,-0.066 0.017,-0.023 0.031,-0.054 0.04,-0.092 0.009,-0.038 0.014,-0.083 0.014,-0.136 0,-0.053 -0.005,-0.099 -0.014,-0.138 C 0.562,-0.531 0.548,-0.562 0.531,-0.587 0.514,-0.612 0.493,-0.631 0.468,-0.643 0.443,-0.655 0.414,-0.661 0.383,-0.661 c -0.031,0 -0.058,0.006 -0.081,0.017 -0.023,0.012 -0.043,0.028 -0.058,0.049 -0.037,0.049 -0.056,0.124 -0.056,0.224 z"
   style="fill-rule:nonzero;stroke:none;stroke-opacity:1;stroke-width:0.00855044;stroke-dasharray:none"
   id="path39" />
                </g>
                <g
   transform="matrix(116.953,0,0,116.953,465.239,0)"
   id="g41">
                    <path
   d="m 0.566,-0.382 c -0.012,0.009 -0.025,0.018 -0.04,0.027 -0.016,0.009 -0.035,0.016 -0.058,0.021 0.003,0.003 0.009,0.009 0.016,0.017 0.007,0.009 0.014,0.019 0.021,0.03 l 0.124,0.21 0.089,0.019 V 0 H 0.482 V -0.058 L 0.351,-0.315 H 0.255 v 0.236 L 0.35,-0.058 V 0 H 0.041 V -0.058 L 0.125,-0.079 V -0.641 L 0.041,-0.662 V -0.72 h 0.374 c 0.032,0 0.06,0.003 0.085,0.009 0.024,0.006 0.045,0.016 0.064,0.029 0.024,0.017 0.043,0.039 0.057,0.066 0.014,0.028 0.021,0.056 0.021,0.084 0,0.028 -0.007,0.056 -0.02,0.082 -0.014,0.027 -0.033,0.05 -0.056,0.068 z M 0.255,-0.388 h 0.113 c 0.037,0 0.067,-0.01 0.091,-0.031 0.013,-0.011 0.024,-0.027 0.032,-0.046 0.007,-0.019 0.011,-0.039 0.011,-0.061 0,-0.02 -0.004,-0.038 -0.012,-0.055 C 0.482,-0.597 0.471,-0.61 0.458,-0.621 0.447,-0.63 0.434,-0.637 0.419,-0.641 0.404,-0.645 0.385,-0.647 0.364,-0.647 H 0.255 Z"
   style="fill-rule:nonzero;stroke:none;stroke-opacity:1;stroke-width:0.00855044;stroke-dasharray:none"
   id="path40" />
                </g>
                <g
   transform="matrix(116.953,0,0,116.953,549.094,0)"
   id="g42">
                    <path
   d="m 0.26,-0.641 v 0.244 L 0.495,-0.641 0.404,-0.662 V -0.72 h 0.293 v 0.058 l -0.088,0.021 -0.219,0.217 0.287,0.347 0.084,0.019 V 0 H 0.452 V -0.058 L 0.518,-0.078 0.306,-0.34 0.26,-0.296 v 0.217 l 0.084,0.021 V 0 H 0.036 V -0.058 L 0.13,-0.079 V -0.641 L 0.036,-0.662 V -0.72 h 0.308 v 0.058 z"
   style="fill-rule:nonzero;stroke:none;stroke-opacity:1;stroke-width:0.00855044;stroke-dasharray:none"
   id="path41" />
                </g>
                <g
   transform="matrix(116.953,0,0,116.953,636.458,0)"
   id="g43">
                    <path
   d="M 0.322,0.011 C 0.284,0.011 0.252,0.005 0.226,-0.006 0.199,-0.017 0.176,-0.034 0.155,-0.058 L 0.144,0 H 0.058 v -0.242 h 0.091 c 0.004,0.067 0.02,0.114 0.049,0.141 0.029,0.028 0.067,0.042 0.114,0.042 0.038,0 0.068,-0.008 0.091,-0.024 0.023,-0.016 0.034,-0.041 0.034,-0.074 0,-0.027 -0.007,-0.05 -0.023,-0.068 C 0.4,-0.242 0.379,-0.258 0.352,-0.272 0.325,-0.285 0.293,-0.299 0.257,-0.314 0.216,-0.331 0.18,-0.349 0.151,-0.367 0.122,-0.385 0.099,-0.407 0.084,-0.432 0.069,-0.457 0.061,-0.489 0.061,-0.528 c 0,-0.065 0.02,-0.115 0.06,-0.15 0.039,-0.035 0.092,-0.053 0.159,-0.053 0.066,0 0.12,0.019 0.161,0.056 L 0.449,-0.72 h 0.086 v 0.242 H 0.448 c 0,-0.063 -0.012,-0.109 -0.035,-0.139 -0.023,-0.03 -0.059,-0.045 -0.108,-0.045 -0.075,0 -0.113,0.036 -0.113,0.107 0,0.023 0.005,0.042 0.014,0.056 0.009,0.014 0.025,0.027 0.047,0.039 0.021,0.012 0.051,0.026 0.088,0.043 0.056,0.025 0.101,0.049 0.134,0.071 0.033,0.022 0.057,0.045 0.072,0.069 0.014,0.025 0.021,0.053 0.021,0.086 0,0.045 -0.011,0.082 -0.033,0.112 -0.022,0.03 -0.051,0.052 -0.088,0.067 C 0.409,0.003 0.368,0.011 0.322,0.011 Z"
   style="fill-rule:nonzero;stroke:none;stroke-opacity:1;stroke-width:0.00855044;stroke-dasharray:none"
   id="path42" />
                </g>
                <g
   transform="matrix(116.953,0,0,116.953,735.751,0)"
   id="g44">
                    <path
   d="m 0.377,-0.661 c -0.025,0 -0.049,0.005 -0.072,0.016 -0.024,0.011 -0.042,0.026 -0.056,0.046 -0.018,0.026 -0.033,0.058 -0.046,0.098 -0.012,0.038 -0.018,0.082 -0.018,0.129 0,0.047 0.005,0.092 0.015,0.133 0.01,0.041 0.024,0.076 0.042,0.104 0.015,0.023 0.035,0.039 0.06,0.05 0.025,0.011 0.053,0.016 0.084,0.016 0.112,0 0.178,-0.056 0.197,-0.169 H 0.668 C 0.635,-0.073 0.534,0.01 0.364,0.01 0.272,0.01 0.199,-0.017 0.144,-0.07 0.111,-0.102 0.086,-0.142 0.069,-0.191 0.052,-0.24 0.043,-0.294 0.043,-0.353 0.043,-0.42 0.054,-0.481 0.076,-0.536 0.098,-0.591 0.129,-0.634 0.169,-0.667 0.22,-0.709 0.287,-0.73 0.37,-0.73 c 0.041,0 0.075,0.005 0.101,0.016 0.026,0.011 0.052,0.03 0.077,0.057 l 0.02,-0.063 h 0.085 v 0.236 H 0.562 C 0.553,-0.543 0.532,-0.587 0.5,-0.617 0.467,-0.646 0.426,-0.661 0.377,-0.661 Z"
   style="fill-rule:nonzero;stroke:none;stroke-opacity:1;stroke-width:0.00855044;stroke-dasharray:none"
   id="path43" />
                </g>
                <g
   transform="matrix(116.953,0,0,116.953,817.384,0)"
   id="g45">
                    <path
   d="m 0.731,-0.368 c 0,0.055 -0.008,0.109 -0.024,0.16 C 0.691,-0.157 0.666,-0.113 0.631,-0.077 0.602,-0.048 0.568,-0.026 0.528,-0.012 0.488,0.003 0.44,0.01 0.384,0.01 0.328,0.01 0.28,0.003 0.24,-0.011 0.2,-0.025 0.166,-0.046 0.139,-0.074 0.11,-0.104 0.087,-0.143 0.07,-0.192 0.052,-0.24 0.043,-0.293 0.043,-0.352 c 0,-0.058 0.009,-0.113 0.027,-0.164 0.017,-0.051 0.042,-0.093 0.073,-0.127 0.028,-0.03 0.062,-0.052 0.101,-0.066 0.039,-0.014 0.087,-0.021 0.143,-0.021 0.053,0 0.1,0.007 0.141,0.02 0.041,0.013 0.076,0.035 0.106,0.064 0.035,0.035 0.06,0.076 0.075,0.125 0.015,0.05 0.022,0.1 0.022,0.153 z M 0.188,-0.371 c 0,0.052 0.005,0.098 0.015,0.138 0.009,0.04 0.022,0.073 0.039,0.098 0.016,0.025 0.036,0.043 0.06,0.056 0.024,0.013 0.053,0.019 0.088,0.019 0.063,0 0.11,-0.022 0.142,-0.066 0.017,-0.023 0.031,-0.054 0.04,-0.092 0.009,-0.038 0.014,-0.083 0.014,-0.136 0,-0.053 -0.005,-0.099 -0.014,-0.138 C 0.562,-0.531 0.548,-0.562 0.531,-0.587 0.514,-0.612 0.493,-0.631 0.468,-0.643 0.443,-0.655 0.414,-0.661 0.383,-0.661 c -0.031,0 -0.058,0.006 -0.081,0.017 -0.023,0.012 -0.043,0.028 -0.058,0.049 -0.037,0.049 -0.056,0.124 -0.056,0.224 z"
   style="fill-rule:nonzero;stroke:none;stroke-opacity:1;stroke-width:0.00855044;stroke-dasharray:none"
   id="path44" />
                </g>
            </g>
        </g>
        <g
   id="IMAGE-REF"
   serif:id="IMAGE REF">
        </g>
    </g><rect
   id="Artboard1"
   x="-2.586"
   y="-197.446"
   width="1000"
   height="1000"
   style="clip-rule:evenodd;fill:none;fill-rule:evenodd" />
<path
   style="fill:#ffffff;fill-opacity:1;stroke:none;stroke-width:0.87184;stroke-dasharray:none;stroke-opacity:1"
   d="m 792.86287,589.1456 c 1.63254,-5.20881 6.3406,-25.76514 9.23019,-40.30087 4.7684,-23.98692 6.10223,-35.92498 6.10223,-54.61646 0,-106.69548 -57.90546,-207.80418 -151.03172,-263.71642 -69.27219,-41.59045 -151.41148,-54.4047 -230.73646,-35.99635 -80.91499,18.77733 -152.5266,71.06376 -195.84638,142.99506 -21.76763,36.14456 -35.9077,76.78267 -41.9772,120.64114 -2.18629,15.79827 -2.19644,54.14424 -0.018,68.00349 2.2477,14.29987 6.35576,35.02442 9.8246,49.56367 1.64164,6.88077 2.9848,12.66761 2.9848,12.85963 0,0.19203 -37.83182,0.34915 -84.0707,0.34915 H 33.253527 l -0.90936,-4.57716 C 23.824919,541.46982 22.019822,487.92837 27.53103,441.58675 38.445585,349.81047 74.902365,265.63351 135.16541,193.0641 148.07749,177.51524 181.03837,144.9397 196.89763,132.0536 252.86315,86.579997 313.78432,55.724183 380.9939,38.811152 491.79626,10.92816 607.44127,23.397601 708.91921,74.169748 c 32.79852,16.409984 63.61255,36.623802 92.30137,60.549132 13.02291,10.86059 38.71505,35.90574 50.51128,49.23927 59.51356,67.26944 99.2099,151.16009 112.89909,238.5906 4.44525,28.39114 5.27088,40.02237 5.28099,74.39981 0.0109,36.72704 -1.55039,55.78214 -7.01839,85.65824 l -1.47603,8.06452 H 876.9011 c -80.09277,0 -84.4914,-0.0799 -84.03823,-1.52572 z M 165.67363,515.91107 c 0.0133,-1.79817 0.5909,-12.09677 1.28365,-22.88579 0.69275,-10.78901 1.27039,-20.1068 1.28365,-20.70619 0.0164,-0.74175 -1.49656,-1.0898 -4.73741,-1.0898 h -4.76151 l -0.87405,3.2694 c -0.48073,1.79817 -1.32384,5.37956 -1.87357,7.95864 l -0.99951,4.68924 -7.0964,-0.52362 c -3.90301,-0.288 -11.73755,-0.78602 -17.41008,-1.10673 -9.93992,-0.56196 -10.29579,-0.64972 -9.82009,-2.42193 0.27147,-1.01136 0.50495,-4.7813 0.51884,-8.37764 0.0139,-3.59634 0.32437,-7.00934 0.68996,-7.58446 0.36558,-0.57512 3.40012,-1.32007 6.7434,-1.65546 3.34329,-0.33539 6.36694,-1.04182 6.71924,-1.56986 0.35229,-0.52803 0.64654,-3.21594 0.65388,-5.97313 0.0111,-4.1774 -0.24099,-5.02229 -1.51237,-5.06837 -0.83915,-0.0304 -9.44026,-0.5242 -19.11358,-1.09732 l -17.587861,-1.04203 -0.502813,2.51406 c -0.276547,1.38274 -0.502812,3.99038 -0.502812,5.79477 v 3.2807 l 6.672936,1.64605 6.67293,1.64604 -0.18411,7.38798 c -0.29504,11.83952 -0.14835,11.60792 -6.96074,10.99022 -3.170805,-0.28751 -11.177012,-0.78318 -17.791575,-1.1015 l -12.026479,-0.57875 0.594003,-9.67939 c 0.326702,-5.32366 0.834519,-13.20541 1.128484,-17.51498 l 0.534481,-7.83561 10.186756,-1.64904 10.186756,-1.64905 0.599076,-5.59409 c 0.329493,-3.07675 0.374505,-5.81867 0.100029,-6.09314 -0.717586,-0.71759 -30.170234,-2.38477 -30.810933,-1.74407 -0.549169,0.54917 -5.548424,81.86386 -5.064985,82.3838 0.147455,0.15859 2.135211,0.35475 4.417235,0.43592 l 4.149136,0.14757 1.669891,-5.66695 c 0.918442,-3.11683 1.953103,-5.96527 2.29925,-6.32987 0.559021,-0.58883 77.532315,3.40264 79.967485,4.14674 0.53779,0.16432 1.47255,2.97864 2.07723,6.25402 0.6047,3.2754 1.26674,6.24951 1.47121,6.60914 0.20447,0.35963 2.31026,0.65388 4.67952,0.65388 h 4.30774 z m 757.82236,-2.73335 c 5.63426,-0.37466 10.45963,-0.89682 10.72319,-1.16037 0.26356,-0.26355 -0.79625,-19.9983 -2.3551,-43.855 l -2.83435,-43.37583 -10.94028,0.57984 c -6.01717,0.31891 -13.39241,0.81835 -16.38936,1.10986 l -5.449,0.53005 v 4.56707 4.56707 l 8.50044,1.02583 c 4.67524,0.56421 9.71987,1.23438 11.21037,1.48927 l 2.70994,0.46343 0.60122,10.05586 c 0.33069,5.53073 0.42075,10.23632 0.20017,10.45687 -0.61508,0.6151 -78.92441,5.71794 -80.20537,5.22638 -0.61877,-0.23744 -2.01001,-3.41281 -3.09167,-7.05638 l -1.96665,-6.62469 h -4.28873 -4.28873 l 0.0127,4.14124 c 0.007,2.27768 0.58975,12.18396 1.29507,22.01395 0.70532,9.82999 1.2881,18.75545 1.29508,19.83435 0.0115,1.7727 0.4352,1.96164 4.39924,1.96164 4.92453,0 4.57914,0.48393 6.21861,-8.71285 l 1.16467,-6.53324 40.39865,-2.63269 c 22.21922,-1.44798 40.51041,-2.4313 40.64703,-2.18515 0.13662,0.24614 0.51735,4.96466 0.84603,10.4856 l 0.59774,10.03805 -6.37114,1.63347 c -3.5041,0.89841 -8.2347,2.18332 -10.51238,2.85535 l -4.14124,1.22189 v 4.76743 4.76742 l 5.88491,-0.48727 c 3.23671,-0.26799 10.49477,-0.7938 16.12895,-1.16845 z M 153.93752,424.06864 c 17.27226,-3.18239 28.88298,-16.71338 33.97291,-39.59165 4.1535,-18.66921 -2.82723,-35.02254 -19.75339,-46.27504 -11.67312,-7.76027 -25.2432,-12.32601 -39.12478,-13.16381 -13.64319,-0.82341 -24.1321,2.55805 -32.178561,10.37387 -12.683998,12.32041 -19.861852,36.61087 -15.329004,51.87462 4.74876,15.99081 25.879725,31.90294 48.379405,36.43088 7.14314,1.43751 17.3294,1.58633 24.03342,0.35113 z m 755.24147,-17.44916 c 7.51473,-2.44909 13.94246,-4.70957 14.2837,-5.02329 0.46338,-0.42593 -21.3,-68.74201 -24.81247,-77.88719 -0.53148,-1.38398 -0.85336,-1.391 -4.63896,-0.10112 l -4.06782,1.38604 0.59047,6.76905 0.59048,6.76905 -36.2102,11.8758 c -19.91559,6.53168 -37.33353,12.10046 -38.70649,12.37505 -2.25569,0.45114 -2.78318,0.0576 -5.47232,-4.08259 -1.63681,-2.52003 -3.20515,-4.92611 -3.48522,-5.34686 -0.63397,-0.95241 -8.6451,1.10594 -8.6451,2.22125 0,1.28569 14.08007,43.65509 14.7504,44.38659 0.33201,0.36229 2.44542,0.0312 4.69647,-0.73585 4.598,-1.56669 4.50404,-1.20924 2.89624,-11.01885 l -1.10417,-6.73678 16.02629,-5.34168 c 8.81444,-2.93793 16.20204,-5.16591 16.41686,-4.95109 0.55972,0.55972 5.60322,15.62874 5.60184,16.73719 -6.5e-4,0.50944 -2.55025,2.2994 -5.6658,3.97769 -3.11554,1.67829 -5.66515,3.40929 -5.6658,3.84665 -0.003,2.1257 3.04698,10.10279 3.86286,10.10279 0.80271,0 35.44068,-11.28844 36.01659,-11.73772 0.11655,-0.0909 -0.61373,-2.61017 -1.62285,-5.59832 l -1.83475,-5.43299 -4.91594,0.6508 c -9.56651,1.26645 -8.91409,1.6417 -11.5658,-6.65248 -1.30308,-4.07585 -2.39966,-8.00686 -2.43685,-8.73558 -0.0491,-0.96219 4.48435,-2.83521 16.55824,-6.84114 9.14423,-3.03392 16.76664,-5.37544 16.93865,-5.20339 0.73156,0.73156 10.77088,32.48835 10.43984,33.0239 -0.20026,0.32407 -3.89625,2.62776 -8.21342,5.1193 -4.31709,2.49154 -8.10433,4.94285 -8.41613,5.44735 -0.72195,1.16815 2.27469,11.1913 3.34586,11.1913 0.44115,0 6.95056,-2.0038 14.4653,-4.45288 z M 800.26644,345.97063 c 1.72355,-1.28111 3.24866,-2.40956 3.38913,-2.50765 0.14046,-0.0981 -0.54591,-2.28662 -1.52528,-4.86339 -0.97937,-2.57677 -1.78087,-5.19901 -1.78112,-5.8272 -2.3e-4,-0.6282 12.0868,-18.08678 26.86008,-38.79686 14.77329,-20.71008 27.74918,-38.93306 28.83531,-40.49552 l 1.97479,-2.84083 -4.53803,-6.31349 c -2.49592,-3.47241 -4.8256,-6.63284 -5.17707,-7.02315 -0.35146,-0.39033 -21.87117,5.59267 -47.82158,13.29555 -25.95041,7.70287 -47.68708,14.00522 -48.3037,14.00522 -0.61662,0 -3.01356,-1.56381 -5.32654,-3.47514 -4.46228,-3.68742 -4.70818,-3.69076 -9.22515,-0.12528 l -2.1286,1.68021 3.24604,4.66543 c 8.95754,12.87437 17.67254,24.61001 18.4715,24.87376 0.49245,0.16257 2.23733,-0.82474 3.87749,-2.19402 l 2.98214,-2.48959 -1.94266,-5.07647 c -1.06846,-2.79205 -1.63635,-5.36694 -1.26199,-5.72197 0.90101,-0.85447 21.21839,-7.14701 21.65774,-6.70767 0.18766,0.18766 4.63361,6.35243 9.8799,13.69947 l 9.5387,13.35827 -6.68432,9.00279 c -3.67638,4.95153 -7.0222,9.01946 -7.43516,9.03985 -0.41297,0.0204 -2.60995,-1.51947 -4.88219,-3.4219 l -4.13135,-3.45896 -2.96436,2.18704 c -1.6304,1.20288 -2.96437,2.71293 -2.96437,3.35568 0,1.07303 23.08793,34.37745 23.89329,34.46615 0.19449,0.0214 1.76381,-1.00923 3.48736,-2.29033 z M 213.12689,327.42869 c 6.502,-9.08162 12.03347,-17.06355 12.29213,-17.73763 0.28134,-0.73313 -0.78819,-2.18551 -2.66174,-3.61453 -3.5243,-2.68811 -3.36823,-2.74069 -9.75354,3.28587 l -3.6484,3.44342 -12.04471,-8.56019 c -6.6246,-4.7081 -12.91243,-9.22298 -13.97297,-10.03307 l -1.92825,-1.47288 3.97244,-5.34568 c 3.17823,-4.27692 4.34812,-5.2604 5.85152,-4.91914 1.03351,0.2346 10.25891,1.81477 20.50091,3.51151 15.62144,2.58792 19.07627,3.4316 21.44236,5.23632 1.55131,1.18323 3.17585,2.14318 3.6101,2.1332 0.64531,-0.0148 16.63836,-21.78683 18.86362,-25.67986 0.41438,-0.72494 -0.58773,-1.96383 -2.86503,-3.54201 l -3.50232,-2.42711 -2.80193,2.56498 c -7.04311,6.44751 -4.1461,6.06162 -28.03829,3.73477 l -21.33531,-2.07784 0.61801,-2.18847 c 0.33991,-1.20366 0.60162,-5.71943 0.5816,-10.03503 -0.0301,-6.479 -0.4051,-8.60631 -2.15176,-12.20576 -6.80492,-14.02329 -23.16949,-20.09153 -36.37986,-13.49022 -2.9044,1.45134 -6.80405,4.29572 -8.66589,6.32083 -3.28123,3.56898 -34.09745,46.1502 -34.78583,48.06635 -0.18798,0.52324 1.15407,2.0073 2.98232,3.29791 l 3.3241,2.34656 4.66609,-3.82758 c 2.59987,-2.13268 5.10648,-3.55783 5.66062,-3.21841 4.21215,2.58007 64.95061,46.60872 64.95027,47.08176 -2.5e-4,0.33372 -0.7849,2.67069 -1.74368,5.19327 -0.95879,2.52259 -1.74324,4.96048 -1.74324,5.41757 0,0.64907 5.86885,5.25311 6.69623,5.25311 0.10372,0 5.50841,-7.4304 12.01043,-16.51202 z m 85.03745,-93.11268 c 18.16651,-13.79098 33.05356,-25.42448 33.08236,-25.85223 0.0615,-0.91373 -18.4377,-25.69861 -19.2322,-25.76694 -1.01426,-0.0872 -9.48617,7.07404 -9.48617,8.01862 0,0.51811 2.14175,4.9527 4.75943,9.85464 l 4.75942,8.91262 -15.21811,11.55314 -15.21811,11.55315 -1.96503,-2.49315 c -1.08076,-1.37123 -6.13797,-7.9749 -11.23825,-14.67482 l -9.27322,-12.18168 7.09362,-5.48937 c 3.9015,-3.01914 7.41136,-5.49386 7.7997,-5.49936 0.38833,-0.006 2.8264,1.99532 5.41791,4.44627 l 4.71185,4.45626 4.44082,-3.25986 c 2.79419,-2.05112 4.26633,-3.71462 3.97021,-4.48628 -0.25884,-0.67453 -5.40969,-7.69226 -11.44635,-15.59495 -6.95849,-9.10952 -11.35195,-14.14696 -12.00364,-13.76311 -0.56535,0.33299 -2.69034,1.95144 -4.72221,3.59656 l -3.6943,2.99111 3.04042,5.43679 c 1.67224,2.99022 3.04042,5.80376 3.04042,6.25229 0,0.69289 -10.5532,9.2475 -13.66742,11.07906 -0.64709,0.38057 -4.61154,-4.0985 -10.73926,-12.13331 -5.34243,-7.00511 -9.9059,-13.23792 -10.14103,-13.85067 -0.34451,-0.89778 12.79061,-11.61192 26.05388,-21.25181 1.44742,-1.052 2.29898,-0.55546 8.32252,4.85288 3.69056,3.31363 7.2081,6.32089 7.81677,6.68278 1.05725,0.62862 9.80262,-5.00073 9.78221,-6.29677 -0.005,-0.31879 -4.1598,-5.99375 -9.23284,-12.61101 l -9.2237,-12.03138 -3.19088,2.39351 c -8.47474,6.35696 -61.6983,46.84423 -62.35864,47.43634 -0.92265,0.8273 3.57864,6.9269 5.11183,6.9269 0.6044,0 3.30911,-1.01186 6.01044,-2.24857 2.70134,-1.23671 5.25937,-2.11945 5.68452,-1.96164 1.00814,0.37422 48.89976,63.25088 48.89976,64.20026 0,0.39867 -1.28124,2.26671 -2.84722,4.15119 -5.58028,6.71527 -5.39504,6.07532 -2.7589,9.53147 1.42222,1.86462 2.88271,2.94258 3.60916,2.66381 0.67112,-0.25753 16.08373,-11.75177 34.25023,-25.54274 z m 431.2488,17.56668 c 2.62096,-3.43626 2.72055,-3.07765 -2.61529,-9.41714 l -3.36781,-4.00127 1.84209,-18.16037 c 1.01314,-9.9882 1.84208,-19.57647 1.84208,-21.30728 0,-3.13453 0.0111,-3.14373 2.82773,-2.33594 1.55524,0.44603 5.65997,0.81098 9.12161,0.81098 15.96027,0 27.73788,-10.62201 28.79647,-25.97098 0.55852,-8.09828 -1.88166,-14.41668 -7.91534,-20.49529 -3.54105,-3.56743 -35.09131,-26.62504 -47.67431,-34.84142 l -2.3498,-1.53435 -2.36812,3.57845 -2.36811,3.57847 3.5543,4.21518 c 1.95486,2.31836 3.5543,4.58697 3.5543,5.04137 0,0.68129 -44.17401,63.67462 -46.12623,65.77723 -0.33521,0.36104 -3.10868,-0.323 -6.16327,-1.52008 -3.05458,-1.19709 -5.61468,-2.08097 -5.68908,-1.96419 -0.0744,0.11678 -1.24385,1.70166 -2.59874,3.52194 -1.40928,1.89337 -2.12622,3.6112 -1.6754,4.01439 1.42305,1.27269 34.43799,24.49814 34.82408,24.49814 0.20728,0 1.40962,-1.56059 2.67188,-3.46799 l 2.29501,-3.468 -4.4358,-5.1203 -4.4358,-5.12031 9.19207,-12.98973 c 5.05563,-7.14435 9.52411,-13.33105 9.92996,-13.74822 0.41333,-0.42487 3.05129,0.86426 5.99741,2.93085 4.60038,3.22698 5.20498,3.97762 4.82429,5.98953 -0.23937,1.2651 -1.75778,10.4709 -3.37422,20.45733 -2.47186,15.27122 -3.30721,18.71357 -5.25576,21.65802 -1.27423,1.92549 -2.06814,3.74952 -1.76427,4.0534 1.17193,1.17193 25.33,18.3245 25.90689,18.39426 0.33523,0.0405 1.68396,-1.33497 2.99718,-3.05668 z m -369.18429,-59.82951 -0.27683,-3.90936 5.40116,1.77087 c 4.88619,1.60202 5.99031,1.66983 11.58037,0.71125 13.56242,-2.3257 26.38751,-11.45788 30.12677,-21.45196 2.31327,-6.18277 2.34433,-13.00962 0.0884,-19.42821 -4.67096,-13.28971 -13.45823,-17.72166 -40.97607,-20.66669 -15.59837,-1.66939 -18.94833,-2.41484 -22.14241,-4.92731 -5.50123,-4.32726 -7.67549,-14.3404 -4.35022,-20.03405 3.06224,-5.243285 13.07813,-8.854499 20.62934,-7.437881 4.47776,0.840031 9.61504,5.797011 12.94826,12.493801 1.61765,3.25006 3.02987,6.06326 3.13827,6.25157 0.17967,0.31213 10.74644,-3.26276 11.43058,-3.86713 0.23567,-0.20818 -3.94901,-11.911438 -11.27725,-31.538985 l -0.72202,-1.933826 -5.48115,2.082661 c -5.43779,2.066185 -5.47956,2.108039 -5.27917,5.290372 0.17264,2.741718 -0.0173,3.115757 -1.30776,2.574743 -0.83036,-0.34813 -4.4522,-0.820841 -8.04854,-1.050467 -5.19638,-0.331787 -7.68192,-0.03061 -12.10686,1.467035 -10.66928,3.611061 -18.59248,10.440077 -21.61059,18.626187 -1.64089,4.45063 -1.35802,13.12972 0.61925,18.99912 4.75604,14.1181 12.42189,19.0905 32.15881,20.85962 27.04244,2.42394 30.76995,3.49162 34.43206,9.86236 5.75024,10.00334 2.42269,17.82402 -9.47833,22.27676 -9.03023,3.37864 -16.02921,2.07642 -22.16667,-4.12431 -2.21499,-2.23783 -4.93753,-5.93235 -6.05007,-8.21003 -1.11254,-2.27768 -2.28953,-4.1452 -2.61552,-4.15006 -1.57756,-0.0235 -11.49071,3.91221 -11.49071,4.56201 0,0.81337 11.08322,30.95312 11.82172,32.14802 0.25065,0.40557 2.89165,-0.17928 5.86888,-1.29966 l 5.41315,-2.03708 z m 274.82736,-6.68336 c 6.5697,-3.23426 13.93152,-10.03833 17.55969,-16.22933 1.29111,-2.20311 2.20173,-4.128 2.02359,-4.27753 -0.17814,-0.14952 -2.7574,-1.08063 -5.7317,-2.06913 l -5.4078,-1.79727 -2.18746,3.73263 c -6.5752,11.21972 -17.79556,15.10384 -31.4492,10.88666 -4.62619,-1.42889 -6.80011,-2.74185 -10.46568,-6.32084 -4.02374,-3.92872 -4.76615,-5.19894 -5.69765,-9.74837 -3.17467,-15.50501 2.85663,-39.35677 13.51288,-53.43888 9.78344,-12.928712 20.57511,-16.358359 32.48409,-10.323615 8.74278,4.430295 12.78159,11.849965 12.74628,23.416095 l -0.0232,7.60478 5.60244,1.86437 c 3.08134,1.02541 5.91092,1.52653 6.28796,1.11362 0.76271,-0.83528 10.4934,-29.865868 10.4934,-31.306049 0,-0.501232 -2.48136,-1.718077 -5.51412,-2.7041 l -5.51411,-1.792771 -2.70431,3.88543 -2.70431,3.88543 -1.81364,-3.555022 C 652.3134,89.884945 643.59078,84.517935 629.9758,81.842826 c -6.3921,-1.255939 -8.37971,-1.316551 -13.45134,-0.410199 -17.70596,3.16423 -31.82917,17.459783 -39.27383,39.753073 -5.51354,16.51047 -5.56394,31.29306 -0.14618,42.87673 7.2138,15.42378 24.30762,24.98009 43.71409,24.43839 7.44196,-0.20773 8.99214,-0.54863 14.23767,-3.131 z M 467.30602,168.61844 c 11.26852,-1.02769 20.78533,-2.13859 21.14845,-2.46867 0.36313,-0.33008 0.41402,-2.3965 0.11308,-4.59205 l -0.54715,-3.99191 -6.96173,-0.88875 c -3.82895,-0.48881 -7.25325,-1.2201 -7.60955,-1.6251 -0.55163,-0.627 -7.99361,-74.804408 -7.91447,-78.886929 0.032,-1.652305 2.29336,-2.169199 13.10528,-2.995592 l 7.41064,-0.566419 3.17487,10.341908 3.17487,10.341907 4.17202,-0.226864 c 2.29461,-0.124776 4.372,-0.426855 4.61643,-0.671288 0.40695,-0.406947 -2.24925,-31.839175 -2.73132,-32.321249 -0.27618,-0.276185 -87.11006,8.226555 -87.37112,8.555345 -0.22923,0.288707 3.00427,32.344121 3.2877,32.592671 0.10214,0.0896 2.20088,-0.036 4.66387,-0.27898 l 4.47818,-0.44182 1.0663,-11.094582 1.0663,-11.094578 10.09654,-0.989204 c 5.5531,-0.544062 10.27643,-0.809323 10.49628,-0.589471 0.55365,0.553643 8.07158,77.176585 7.78378,79.332475 -0.176,1.31847 -1.82728,2.29967 -6.77156,4.02373 -7.0067,2.4432 -7.54535,3.12327 -6.57417,8.30008 0.52524,2.79979 0.744,2.96627 3.35009,2.54962 1.53348,-0.24517 12.00786,-1.2866 23.27639,-2.31428 z"
   id="path46" /><path
   style="fill:#ffffff;fill-opacity:1;stroke:none;stroke-width:0.87184;stroke-dasharray:none;stroke-opacity:1"
   d="m 723.7471,182.63012 c -2.86413,-1.29962 -12.36146,-7.57373 -16.5242,-10.9162 -0.44113,-0.35421 20.83822,-30.03999 21.53326,-30.03999 0.66043,0 5.28145,3.19855 12.91915,8.94228 10.14418,7.62867 10.7363,18.9711 1.4539,27.85038 -6.21228,5.94248 -12.48978,7.29098 -19.38211,4.16353 z"
   id="path47" /><path
   style="fill:#ffffff;fill-opacity:1;stroke:none;stroke-width:0.87184;stroke-dasharray:none;stroke-opacity:1"
   d="m 800.87501,276.78609 c -7.192,-10.06302 -7.41482,-10.51485 -5.53567,-11.22539 5.14325,-1.94473 39.13832,-12.45068 39.38748,-12.17243 0.37912,0.42337 -25.06481,33.82548 -25.79097,33.8577 -0.31197,0.0138 -3.93934,-4.6931 -8.06084,-10.45988 z"
   id="path48" /><path
   style="fill:#ffffff;fill-opacity:1;stroke:none;stroke-width:0.87184;stroke-dasharray:none;stroke-opacity:1"
   d="m 158.23888,276.27868 c -7.67218,-5.51629 -14.40089,-10.49799 -14.95269,-11.07045 -0.7642,-0.79283 0.48225,-3.00015 5.23104,-9.26358 7.49667,-9.88777 9.55701,-11.50813 15.3394,-12.06374 6.27864,-0.6033 11.30116,1.53264 16.06618,6.83249 7.67901,8.5409 7.18275,15.46164 -2.02306,28.21365 -2.96686,4.10974 -5.46565,7.45177 -5.55286,7.42675 -0.0872,-0.025 -6.43582,-4.55883 -14.10801,-10.07512 z"
   id="path49" /><path
   style="fill:#ffffff;fill-opacity:1;stroke:none;stroke-width:0.87184;stroke-dasharray:none;stroke-opacity:1"
   d="m 142.54577,404.79713 c -17.58906,-1.78512 -39.54196,-12.00527 -46.093123,-21.45859 -2.503413,-3.61243 -4.909491,-10.33901 -4.909491,-13.72528 0,-1.07206 0.815814,-4.5905 1.812919,-7.81875 2.30605,-7.46613 7.812285,-13.36918 14.561495,-15.61091 5.21948,-1.73363 17.4591,-2.00157 24.16613,-0.52902 17.54311,3.85164 34.74727,12.48338 40.52623,20.33298 3.41617,4.64019 5.59805,11.91455 4.84993,16.16965 -1.72185,9.79352 -6.24488,16.91269 -12.90331,20.30957 -4.26608,2.17639 -13.69337,3.17449 -22.01078,2.33035 z"
   id="path50" /><path
   style="fill:#ffffff;fill-opacity:1;stroke:none;stroke-width:0.308242;stroke-dasharray:none;stroke-opacity:1"
   d="m 528.88199,395.39722 c 2.71845,-2.83968 5.6128,-5.81674 6.4319,-6.61571 l 1.48927,-1.45265 5.61708,6.38342 c 4.54137,5.16096 5.51536,6.42375 5.08599,6.59404 -0.2921,0.11584 -5.71413,0.22037 -12.04897,0.23229 l -11.51789,0.0217 z"
   id="path51" /><path
   style="fill:#ffffff;fill-opacity:1;stroke:none;stroke-width:0.308242;stroke-dasharray:none;stroke-opacity:1"
   d="m 511.84742,412.81288 5.22827,-5.31717 8.93901,-0.18782 c 4.91646,-0.10331 13.25885,-0.20734 18.53865,-0.23118 l 9.59964,-0.0434 4.42536,5.01236 c 2.43396,2.7568 4.61574,5.25355 4.84841,5.54835 0.40123,0.50836 -1.05261,0.536 -28.19228,0.536 h -28.61533 z"
   id="path52" /><path
   style="fill:#ffffff;fill-opacity:1;stroke:none;stroke-width:0.308242;stroke-dasharray:none;stroke-opacity:1"
   d="m 489.49232,435.77833 c 1.26693,-1.31467 4.24454,-4.3669 6.61692,-6.78275 l 4.31341,-4.39244 34.6812,0.0198 34.68119,0.0198 5.59009,6.37624 5.59009,6.37625 -22.23515,0.19528 c -12.22933,0.1074 -33.32902,0.28143 -46.8882,0.38673 l -24.65305,0.19146 z"
   id="path53" /><path
   style="fill:#ffffff;fill-opacity:1;stroke:none;stroke-width:0.308242;stroke-dasharray:none;stroke-opacity:1"
   d="m 588.89604,456.95267 c -2.37347,-0.11944 -5.25167,-0.23409 -6.39602,-0.25477 -2.06859,-0.0374 -2.08063,-0.0426 -2.08063,-0.90802 v -0.8704 l -16.41388,0.14015 c -9.02764,0.0771 -19.70124,0.0373 -23.71912,-0.0883 l -7.30525,-0.22848 -0.0926,-1.43014 -0.0926,-1.43014 -23.42638,-0.08 c -21.35211,-0.0729 -23.45908,-0.0355 -23.79567,0.42233 -0.33114,0.4504 -0.97256,0.47458 -6.2089,0.23409 l -5.8396,-0.2682 3.54594,-3.67069 3.54593,-3.67069 34.72011,-0.23653 c 19.09607,-0.13009 42.99161,-0.31221 53.10122,-0.4047 l 18.3811,-0.16817 5.35352,6.08008 c 2.94443,3.34405 5.54389,6.32232 5.77656,6.61839 0.39596,0.50384 0.25782,0.53488 -2.15769,0.48484 -1.41941,-0.0294 -4.52266,-0.15119 -6.89612,-0.27064 z"
   id="path54" /><path
   style="fill:#ffffff;fill-opacity:1;stroke:none;stroke-width:1.23297;stroke-dasharray:none;stroke-opacity:1"
   d="m 259.00072,587.53984 -32.59607,-0.64738 -2.22649,-8.63077 c -3.24934,-12.59581 -10.87481,-50.60138 -10.87481,-54.20042 0,-2.95729 0.24315,-3.05626 5.8566,-2.38385 23.62218,2.82958 43.09696,6.79533 62.88133,12.80483 l 8.93902,2.71522 v 9.74365 9.74364 h 7.3978 7.39781 v -7.48089 c 0,-6.5587 0.26598,-7.39804 2.15769,-6.80883 5.59399,1.74236 51.55729,13.2448 61.95661,15.50481 6.44225,1.40004 12.43058,2.80081 13.30739,3.1128 0.95375,0.33937 -1.77054,3.49297 -6.78132,7.84994 -4.60654,4.00547 -11.12884,10.11692 -14.49401,13.581 l -6.11849,6.29832 -32.1035,-0.27735 c -17.65692,-0.15254 -46.77173,-0.56867 -64.69956,-0.92472 z"
   id="path55" /><path
   style="fill:#ffffff;fill-opacity:1;stroke:none;stroke-width:1.23297;stroke-dasharray:none;stroke-opacity:1"
   d="m 508.75614,588.75044 -129.30447,-0.62501 8.47367,-7.17777 c 19.27761,-16.32944 43.85834,-30.76494 67.29402,-39.5197 l 11.96759,-4.47067 h 67.16644 67.16646 l 10.01561,3.69287 c 17.18965,6.33803 37.4979,16.82039 51.48919,26.5768 7.86547,5.48475 27.43707,21.40915 27.43707,22.32411 0,0.2331 -11.79025,0.28894 -26.20055,0.12409 -14.41031,-0.16484 -84.38757,-0.58097 -155.50503,-0.92472 z"
   id="path56" /><path
   style="fill:#ffffff;fill-opacity:1;stroke:none;stroke-width:1.23297;stroke-dasharray:none;stroke-opacity:1"
   d="m 706.45468,581.85587 c -8.45009,-8.59873 -29.0577,-25.74685 -35.5495,-29.58165 -2.12841,-1.25728 -3.86984,-2.61106 -3.86984,-3.00839 0,-0.39734 2.74319,-1.88139 6.09598,-3.29791 l 6.09599,-2.57547 0.37709,3.25549 c 0.35293,3.04683 0.83153,3.2792 7.46666,3.62527 l 7.08956,0.36978 v -6.78497 -6.78496 l 11.96338,-3.8322 c 20.39217,-6.5322 39.21628,-10.02521 69.10423,-12.823 6.03479,-0.56491 6.47308,-0.42187 6.47308,2.11259 0,4.22537 -4.40243,26.64251 -9.43152,48.0252 l -4.56729,19.41923 h -26.63457 -26.63458 z"
   id="path57" /></svg>
